<?xml version="1.0" encoding="UTF-8"?>
<svg height="128px" viewBox="0 0 128 128" width="128px" xmlns="http://www.w3.org/2000/svg" xmlns:xlink="http://www.w3.org/1999/xlink">
    <linearGradient id="a" gradientTransform="matrix(0.232143 0 0 0.328947 -8.58254 263.826965)" gradientUnits="userSpaceOnUse" x1="88.595886" x2="536.595886" y1="-449.394012" y2="-449.394012">
        <stop offset="0" stop-color="#77767b"/>
        <stop offset="0.0384615" stop-color="#c0bfbc"/>
        <stop offset="0.0768555" stop-color="#9a9996"/>
        <stop offset="0.923077" stop-color="#9a9996"/>
        <stop offset="0.961538" stop-color="#c0bfbc"/>
        <stop offset="1" stop-color="#77767b"/>
    </linearGradient>
    <linearGradient id="b" gradientUnits="userSpaceOnUse" x1="28" x2="44" y1="37.685501" y2="37.685501">
        <stop offset="0" stop-color="#009ccd"/>
        <stop offset="0.5" stop-color="#89e777"/>
        <stop offset="1" stop-color="#fc7474"/>
    </linearGradient>
    <linearGradient id="c" gradientUnits="userSpaceOnUse" x1="108.252083" x2="83.944199" y1="90.550278" y2="104.584442">
        <stop offset="0" stop-color="#89e777"/>
        <stop offset="0.5" stop-color="#fc7474"/>
        <stop offset="0.852788" stop-color="#009ccd"/>
    </linearGradient>
    <linearGradient id="d" gradientUnits="userSpaceOnUse" x1="108.252083" x2="83.944199" y1="90.550278" y2="104.584442">
        <stop offset="0" stop-color="#89e777"/>
        <stop offset="0.5" stop-color="#fc7474"/>
        <stop offset="0.852229" stop-color="#009ccd"/>
    </linearGradient>
    <path d="m 19.984375 16 h 88 c 4.417969 0 8 3.582031 8 8 v 84 c 0 4.417969 -3.582031 8 -8 8 h -88 c -4.417969 0 -8 -3.582031 -8 -8 v -84 c 0 -4.417969 3.582031 -8 8 -8 z m 0 0" fill="url(#a)"/>
    <path d="m 20 12 h 88 c 4.417969 0 8 3.582031 8 8 v 84 c 0 4.417969 -3.582031 8 -8 8 h -88 c -4.417969 0 -8 -3.582031 -8 -8 v -84 c 0 -4.417969 3.582031 -8 8 -8 z m 0 0" fill="#deddda"/>
    <path d="m 22.972656 16.296875 h 82.054688 c 3.898437 0 7.054687 3.148437 7.054687 7.03125 v 25.644531 c 0 3.878906 -3.15625 7.027344 -7.054687 7.027344 h -82.054688 c -3.898437 0 -7.054687 -3.148438 -7.054687 -7.027344 v -25.644531 c 0 -3.882813 3.15625 -7.03125 7.054687 -7.03125 z m 0 0" fill="#262133"/>
    <path d="m 23.050781 57.824219 h 81.898438 c 3.894531 0 7.050781 3.148437 7.050781 7.027343 v 36.121094 c 0 3.878906 -3.15625 7.027344 -7.050781 7.027344 h -81.898438 c -3.894531 0 -7.050781 -3.148438 -7.050781 -7.027344 v -36.121094 c 0 -3.878906 3.15625 -7.027343 7.050781 -7.027343 z m 0 0" fill="#262133"/>
    <path d="m 24 25.125 c 0 -0.621094 0.179688 -1.125 0.398438 -1.125 h 7.203124 c 0.21875 0 0.398438 0.503906 0.398438 1.125 v 1.121094 c 0 0.621094 -0.179688 1.125 -0.398438 1.125 h -7.203124 c -0.21875 0 -0.398438 -0.503906 -0.398438 -1.125 z m 0 0" fill="#deddda"/>
    <path d="m 38 25.125 c 0 -0.621094 0.179688 -1.125 0.398438 -1.125 h 7.203124 c 0.21875 0 0.398438 0.503906 0.398438 1.125 v 1.121094 c 0 0.621094 -0.179688 1.125 -0.398438 1.125 h -7.203124 c -0.21875 0 -0.398438 -0.503906 -0.398438 -1.125 z m 0 0" fill="#deddda"/>
    <path d="m 24 31.125 c 0 -0.621094 0.042969 -1.125 0.101562 -1.125 h 1.796876 c 0.058593 0 0.101562 0.503906 0.101562 1.125 v 1.121094 c 0 0.621094 -0.042969 1.125 -0.101562 1.125 h -1.796876 c -0.058593 0 -0.101562 -0.503906 -0.101562 -1.125 z m 0 0" fill="#deddda" fill-opacity="0.6"/>
    <path d="m 28 37.125 c 0 -0.621094 0.089844 -1.125 0.199219 -1.125 h 3.601562 c 0.109375 0 0.199219 0.503906 0.199219 1.125 v 1.121094 c 0 0.621094 -0.089844 1.125 -0.199219 1.125 h -3.601562 c -0.109375 0 -0.199219 -0.503906 -0.199219 -1.125 z m 0 0" fill="#009ccd"/>
    <path d="m 24 49.125 c 0 -0.621094 0.132812 -1.125 0.300781 -1.125 h 5.398438 c 0.167969 0 0.300781 0.503906 0.300781 1.125 v 1.121094 c 0 0.621094 -0.132812 1.125 -0.300781 1.125 h -5.398438 c -0.167969 0 -0.300781 -0.503906 -0.300781 -1.125 z m 0 0" fill="#deddda"/>
    <path d="m 32 49.125 c 0 -0.621094 0.089844 -1.125 0.199219 -1.125 h 3.601562 c 0.109375 0 0.199219 0.503906 0.199219 1.125 v 1.121094 c 0 0.621094 -0.089844 1.125 -0.199219 1.125 h -3.601562 c -0.109375 0 -0.199219 -0.503906 -0.199219 -1.125 z m 0 0" fill="#deddda" fill-opacity="0.6"/>
    <path d="m 34 37.125 c 0 -0.621094 0.089844 -1.125 0.199219 -1.125 h 3.601562 c 0.109375 0 0.199219 0.503906 0.199219 1.125 v 1.121094 c 0 0.621094 -0.089844 1.125 -0.199219 1.125 h -3.601562 c -0.109375 0 -0.199219 -0.503906 -0.199219 -1.125 z m 0 0" fill="#89e777"/>
    <path d="m 40 37.125 c 0 -0.621094 0.089844 -1.125 0.199219 -1.125 h 3.601562 c 0.109375 0 0.199219 0.503906 0.199219 1.125 v 1.121094 c 0 0.621094 -0.089844 1.125 -0.199219 1.125 h -3.601562 c -0.109375 0 -0.199219 -0.503906 -0.199219 -1.125 z m 0 0" fill="#fc7474"/>
    <path d="m 28 37.125 c 0 -0.621094 0.089844 -1.125 0.199219 -1.125 h 3.601562 c 0.109375 0 0.199219 0.503906 0.199219 1.125 v 1.121094 c 0 0.621094 -0.089844 1.125 -0.199219 1.125 h -3.601562 c -0.109375 0 -0.199219 -0.503906 -0.199219 -1.125 z m 0 0" fill="url(#b)"/>
    <path d="m 34 37.125 c 0 -0.621094 0.089844 -1.125 0.199219 -1.125 h 3.601562 c 0.109375 0 0.199219 0.503906 0.199219 1.125 v 1.121094 c 0 0.621094 -0.089844 1.125 -0.199219 1.125 h -3.601562 c -0.109375 0 -0.199219 -0.503906 -0.199219 -1.125 z m 0 0" fill="url(#b)"/>
    <path d="m 40 37.125 c 0 -0.621094 0.089844 -1.125 0.199219 -1.125 h 3.601562 c 0.109375 0 0.199219 0.503906 0.199219 1.125 v 1.121094 c 0 0.621094 -0.089844 1.125 -0.199219 1.125 h -3.601562 c -0.109375 0 -0.199219 -0.503906 -0.199219 -1.125 z m 0 0" fill="url(#b)"/>
    <path d="m 24 43.125 c 0 -0.621094 0.042969 -1.125 0.101562 -1.125 h 1.796876 c 0.058593 0 0.101562 0.503906 0.101562 1.125 v 1.121094 c 0 0.621094 -0.042969 1.125 -0.101562 1.125 h -1.796876 c -0.058593 0 -0.101562 -0.503906 -0.101562 -1.125 z m 0 0" fill="#deddda" fill-opacity="0.6"/>
    <path d="m 34 25.125 c 0 -0.621094 0.042969 -1.125 0.101562 -1.125 h 1.796876 c 0.058593 0 0.101562 0.503906 0.101562 1.125 v 1.121094 c 0 0.621094 -0.042969 1.125 -0.101562 1.125 h -1.796876 c -0.058593 0 -0.101562 -0.503906 -0.101562 -1.125 z m 0 0" fill="#deddda" fill-opacity="0.6"/>
    <g stroke="url(#d)">
        <path d="m 92.612267 93.342208 l 8.212158 -1.236209" fill="url(#c)" stroke-width="2" transform="matrix(1.425097 0 0 1.425097 -73.21587 -57.424077)"/>
        <path d="m 104.571428 100.290747 v -5.514974" fill="none" stroke-width="2" transform="matrix(1.425097 0 0 1.425097 -73.21587 -57.424077)"/>
        <path d="m 91.91056 96.625975 l 9.399029 5.210719" fill="url(#c)" stroke-width="2" transform="matrix(1.425097 0 0 1.425097 -73.21587 -57.424077)"/>
        <path d="m 92.749319 94.000058 c 0 2.623176 -2.127048 4.750224 -4.750224 4.750224 s -4.747483 -2.127048 -4.747483 -4.750224 s 2.124307 -4.750224 4.747483 -4.750224 s 4.750224 2.127048 4.750224 4.750224 z m 0 0" fill="none" stroke-width="1.99987" transform="matrix(1.425097 0 0 1.425097 -73.21587 -57.424077)"/>
        <path d="m 108.37051 91.001359 c 0 2.096897 -1.702186 3.799083 -3.799082 3.799083 c -2.099638 0 -3.799083 -1.702186 -3.799083 -3.799083 c 0 -2.099637 1.699445 -3.801823 3.799083 -3.801823 c 2.096896 0 3.799082 1.702186 3.799082 3.801823 z m 0 0" fill="none" stroke-width="2" transform="matrix(1.425097 0 0 1.425097 -73.21587 -57.424077)"/>
        <path d="m 109.318912 104.999855 c 0 2.623176 -2.127048 4.750224 -4.747483 4.750224 c -2.623176 0 -4.750224 -2.127048 -4.750224 -4.750224 s 2.127048 -4.747483 4.750224 -4.747483 c 2.620435 0 4.747483 2.124307 4.747483 4.747483 z m 0 0" fill="none" stroke-width="2" transform="matrix(1.425097 0 0 1.425097 -73.215872 -57.424077)"/>
        <path d="m 105.569168 104.999855 c 0 0.55369 -0.44679 1.00048 -0.997739 1.00048 c -0.55369 0 -1.00048 -0.44679 -1.00048 -1.00048 c 0 -0.550949 0.44679 -1.00048 1.00048 -1.00048 c 0.550949 0 0.997739 0.449531 0.997739 1.00048 z m 0 0" fill="url(#c)" transform="matrix(1.425097 0 0 1.425097 -73.215872 -57.424077)"/>
    </g>
</svg>
