<?xml version="1.0" encoding="UTF-8"?>
<svg height="16px" viewBox="0 0 16 16" width="16px" xmlns="http://www.w3.org/2000/svg">
    <g stroke="#414141" stroke-width="1.10650654139">
        <path d="m 5.91390567499 5.08604278807 l 4.66407000428 -0.70312626223" fill="#ff0000"/>
        <g fill="none">
            <path d="m 12.70297922728 9.0313617688 v -3.13281763276"/>
            <path d="m 5.51546752804 6.94932704631 l 5.33594615837 2.96094233072"/>
            <path d="m 5.99203065259 5.46104350029 c 0 1.48828354601 -1.20703315823 2.69531670424 -2.69531670424 2.69531670424 c -1.48828383878 0 -2.69922333371 -1.20703315823 -2.69922333371 -2.69531670424 c 0 -1.49219017549 1.21093949494 -2.69922333371 2.69922333371 -2.69922333371 c 1.48828354601 0 2.69531670424 1.20703315823 2.69531670424 2.69922333371 z m 0 0"/>
            <path d="m 14.85923259067 3.75791553397 c 0 1.18750206021 -0.96484525924 2.15625365616 -2.15625336339 2.15625365616 c -1.19140839692 0 -2.15625365616 -0.96875159595 -2.15625365616 -2.15625365616 c 0 -1.19140810415 0.96484525924 -2.1601597001 2.15625365616 -2.1601597001 c 1.19140810415 0 2.15625336339 0.96875159595 2.15625336339 2.1601597001 z m 0 0"/>
            <path d="m 15.40220226823 11.70324103832 c 0 1.49218988272 -1.21093949494 2.69922304095 -2.69922304095 2.69922304095 c -1.48828383878 0 -2.695316997 -1.20703315823 -2.695316997 -2.69922304095 c 0 -1.48828354601 1.20703315823 -2.695316997 2.695316997 -2.695316997 c 1.48828354601 0 2.69922304095 1.20703345099 2.69922304095 2.695316997 z m 0 0"/>
        </g>
        <path d="m 13.27329267628 11.70324103832 c 0 0.31640683264 -0.25390661635 0.57031344899 -0.57031344899 0.57031344899 c -0.31250049593 0 -0.56640711228 -0.25390661635 -0.56640711228 -0.57031344899 c 0 -0.31250049593 0.25390661635 -0.56640711228 0.56640711228 -0.56640711228 c 0.31640683264 0 0.57031344899 0.25390661635 0.57031344899 0.56640711228 z m 0 0" fill="#ffffff"/>
    </g>
</svg>
