<?xml version="1.0" encoding="UTF-8" standalone="no"?>
<svg
   height="128px"
   viewBox="0 0 128 128"
   width="128px"
   version="1.1"
   id="svg38"
   sodipodi:docname="corese-gui_borderless.svg"
   inkscape:version="1.4.2 (ebf0e940d0, 2025-05-08)"
   xmlns:inkscape="http://www.inkscape.org/namespaces/inkscape"
   xmlns:sodipodi="http://sodipodi.sourceforge.net/DTD/sodipodi-0.dtd"
   xmlns:xlink="http://www.w3.org/1999/xlink"
   xmlns="http://www.w3.org/2000/svg"
   xmlns:svg="http://www.w3.org/2000/svg">
  <defs
     id="defs38">
    <linearGradient
       inkscape:collect="always"
       xlink:href="#b"
       id="linearGradient39"
       gradientUnits="userSpaceOnUse"
       x1="28"
       y1="37.685501"
       x2="44"
       y2="37.685501" />
    <linearGradient
       inkscape:collect="always"
       xlink:href="#b"
       id="linearGradient40"
       gradientUnits="userSpaceOnUse"
       x1="28"
       y1="37.685501"
       x2="44"
       y2="37.685501" />
    <linearGradient
       inkscape:collect="always"
       xlink:href="#b"
       id="linearGradient41"
       gradientUnits="userSpaceOnUse"
       x1="28"
       y1="37.685501"
       x2="44"
       y2="37.685501" />
    <linearGradient
       inkscape:collect="always"
       xlink:href="#c"
       id="linearGradient42"
       gradientUnits="userSpaceOnUse"
       x1="108.252083"
       y1="90.550278"
       x2="83.944199"
       y2="104.584442" />
    <linearGradient
       inkscape:collect="always"
       xlink:href="#d"
       id="linearGradient43"
       gradientUnits="userSpaceOnUse"
       x1="108.252083"
       y1="90.550278"
       x2="83.944199"
       y2="104.584442" />
    <linearGradient
       inkscape:collect="always"
       xlink:href="#d"
       id="linearGradient44"
       gradientUnits="userSpaceOnUse"
       x1="108.252083"
       y1="90.550278"
       x2="83.944199"
       y2="104.584442" />
    <linearGradient
       inkscape:collect="always"
       xlink:href="#c"
       id="linearGradient45"
       gradientUnits="userSpaceOnUse"
       x1="108.252083"
       y1="90.550278"
       x2="83.944199"
       y2="104.584442" />
    <linearGradient
       inkscape:collect="always"
       xlink:href="#d"
       id="linearGradient46"
       gradientUnits="userSpaceOnUse"
       x1="108.252083"
       y1="90.550278"
       x2="83.944199"
       y2="104.584442" />
    <linearGradient
       inkscape:collect="always"
       xlink:href="#d"
       id="linearGradient47"
       gradientUnits="userSpaceOnUse"
       x1="108.252083"
       y1="90.550278"
       x2="83.944199"
       y2="104.584442" />
    <linearGradient
       inkscape:collect="always"
       xlink:href="#d"
       id="linearGradient48"
       gradientUnits="userSpaceOnUse"
       x1="108.252083"
       y1="90.550278"
       x2="83.944199"
       y2="104.584442" />
    <linearGradient
       inkscape:collect="always"
       xlink:href="#d"
       id="linearGradient49"
       gradientUnits="userSpaceOnUse"
       x1="108.252083"
       y1="90.550278"
       x2="83.944199"
       y2="104.584442" />
    <linearGradient
       inkscape:collect="always"
       xlink:href="#c"
       id="linearGradient50"
       gradientUnits="userSpaceOnUse"
       x1="108.252083"
       y1="90.550278"
       x2="83.944199"
       y2="104.584442" />
    <linearGradient
       inkscape:collect="always"
       xlink:href="#d"
       id="linearGradient51"
       gradientUnits="userSpaceOnUse"
       x1="108.252083"
       y1="90.550278"
       x2="83.944199"
       y2="104.584442" />
    <linearGradient
       inkscape:collect="always"
       xlink:href="#d"
       id="linearGradient52"
       gradientUnits="userSpaceOnUse"
       x1="108.252083"
       y1="90.550278"
       x2="83.944199"
       y2="104.584442" />
  </defs>
  <sodipodi:namedview
     id="namedview38"
     pagecolor="#ffffff"
     bordercolor="#666666"
     borderopacity="1.0"
     inkscape:showpageshadow="2"
     inkscape:pageopacity="0.0"
     inkscape:pagecheckerboard="0"
     inkscape:deskcolor="#d1d1d1"
     inkscape:zoom="2.8574219"
     inkscape:cx="153.11005"
     inkscape:cy="79.267259"
     inkscape:window-width="3072"
     inkscape:window-height="1659"
     inkscape:window-x="0"
     inkscape:window-y="0"
     inkscape:window-maximized="1"
     inkscape:current-layer="svg38" />
  <linearGradient
     id="a"
     gradientTransform="matrix(0.232143,0,0,0.328947,-8.58254,263.82696)"
     gradientUnits="userSpaceOnUse"
     x1="88.595886"
     x2="536.595886"
     y1="-449.394012"
     y2="-449.394012">
    <stop
       offset="0"
       stop-color="#77767b"
       id="stop1" />
    <stop
       offset="0.0384615"
       stop-color="#c0bfbc"
       id="stop2" />
    <stop
       offset="0.0768555"
       stop-color="#9a9996"
       id="stop3" />
    <stop
       offset="0.923077"
       stop-color="#9a9996"
       id="stop4" />
    <stop
       offset="0.961538"
       stop-color="#c0bfbc"
       id="stop5" />
    <stop
       offset="1"
       stop-color="#77767b"
       id="stop6" />
  </linearGradient>
  <linearGradient
     id="b"
     gradientUnits="userSpaceOnUse"
     x1="28"
     x2="44"
     y1="37.685501"
     y2="37.685501">
    <stop
       offset="0"
       stop-color="#009ccd"
       id="stop7" />
    <stop
       offset="0.5"
       stop-color="#89e777"
       id="stop8" />
    <stop
       offset="1"
       stop-color="#fc7474"
       id="stop9" />
  </linearGradient>
  <linearGradient
     id="c"
     gradientUnits="userSpaceOnUse"
     x1="108.252083"
     x2="83.944199"
     y1="90.550278"
     y2="104.584442">
    <stop
       offset="0"
       stop-color="#89e777"
       id="stop10" />
    <stop
       offset="0.5"
       stop-color="#fc7474"
       id="stop11" />
    <stop
       offset="0.852788"
       stop-color="#009ccd"
       id="stop12" />
  </linearGradient>
  <linearGradient
     id="d"
     gradientUnits="userSpaceOnUse"
     x1="108.252083"
     x2="83.944199"
     y1="90.550278"
     y2="104.584442">
    <stop
       offset="0"
       stop-color="#89e777"
       id="stop13" />
    <stop
       offset="0.5"
       stop-color="#fc7474"
       id="stop14" />
    <stop
       offset="0.852229"
       stop-color="#009ccd"
       id="stop15" />
  </linearGradient>
  <g
     id="g39"
     transform="matrix(1.2307692,0,0,1.2307692,-14.749999,-14.76923)">
    <path
       d="m 19.984375,16 h 88.000005 c 4.41796,0 8,3.582031 8,8 v 84 c 0,4.41797 -3.58204,8 -8,8 H 19.984375 c -4.417969,0 -8,-3.58203 -8,-8 V 24 c 0,-4.417969 3.582031,-8 8,-8 z m 0,0"
       fill="url(#a)"
       id="path15"
       style="fill:url(#a)" />
    <path
       d="m 20,12 h 88 c 4.41797,0 8,3.582031 8,8 v 84 c 0,4.41797 -3.58203,8 -8,8 H 20 c -4.417969,0 -8,-3.58203 -8,-8 V 20 c 0,-4.417969 3.582031,-8 8,-8 z m 0,0"
       fill="#deddda"
       id="path16" />
    <path
       d="m 22.972656,16.296875 h 82.054684 c 3.89844,0 7.05469,3.148437 7.05469,7.03125 V 48.972656 C 112.08203,52.851562 108.92578,56 105.02734,56 H 22.972656 c -3.898437,0 -7.054687,-3.148438 -7.054687,-7.027344 V 23.328125 c 0,-3.882813 3.15625,-7.03125 7.054687,-7.03125 z m 0,0"
       fill="#262133"
       id="path17" />
    <path
       d="m 23.050781,57.824219 h 81.898439 c 3.89453,0 7.05078,3.148437 7.05078,7.027343 V 100.97266 C 112,104.85156 108.84375,108 104.94922,108 H 23.050781 C 19.15625,108 16,104.85156 16,100.97266 V 64.851562 c 0,-3.878906 3.15625,-7.027343 7.050781,-7.027343 z m 0,0"
       fill="#262133"
       id="path18" />
    <path
       d="M 24,25.125 C 24,24.503906 24.179688,24 24.398438,24 h 7.203124 C 31.820312,24 32,24.503906 32,25.125 v 1.121094 c 0,0.621094 -0.179688,1.125 -0.398438,1.125 H 24.398438 C 24.179688,27.371094 24,26.867188 24,26.246094 Z m 0,0"
       fill="#deddda"
       id="path19" />
    <path
       d="M 38,25.125 C 38,24.503906 38.179688,24 38.398438,24 h 7.203124 C 45.820312,24 46,24.503906 46,25.125 v 1.121094 c 0,0.621094 -0.179688,1.125 -0.398438,1.125 H 38.398438 C 38.179688,27.371094 38,26.867188 38,26.246094 Z m 0,0"
       fill="#deddda"
       id="path20" />
    <path
       d="M 24,31.125 C 24,30.503906 24.042969,30 24.101562,30 h 1.796876 C 25.957031,30 26,30.503906 26,31.125 v 1.121094 c 0,0.621094 -0.04297,1.125 -0.101562,1.125 H 24.101562 C 24.042969,33.371094 24,32.867188 24,32.246094 Z m 0,0"
       fill="#deddda"
       fill-opacity="0.6"
       id="path21" />
    <path
       d="M 28,37.125 C 28,36.503906 28.089844,36 28.199219,36 h 3.601562 C 31.910156,36 32,36.503906 32,37.125 v 1.121094 c 0,0.621094 -0.08984,1.125 -0.199219,1.125 H 28.199219 C 28.089844,39.371094 28,38.867188 28,38.246094 Z m 0,0"
       fill="#009ccd"
       id="path22" />
    <path
       d="M 24,49.125 C 24,48.503906 24.132812,48 24.300781,48 h 5.398438 C 29.867188,48 30,48.503906 30,49.125 v 1.121094 c 0,0.621094 -0.132812,1.125 -0.300781,1.125 H 24.300781 C 24.132812,51.371094 24,50.867188 24,50.246094 Z m 0,0"
       fill="#deddda"
       id="path23" />
    <path
       d="M 32,49.125 C 32,48.503906 32.089844,48 32.199219,48 h 3.601562 C 35.910156,48 36,48.503906 36,49.125 v 1.121094 c 0,0.621094 -0.08984,1.125 -0.199219,1.125 H 32.199219 C 32.089844,51.371094 32,50.867188 32,50.246094 Z m 0,0"
       fill="#deddda"
       fill-opacity="0.6"
       id="path24" />
    <path
       d="M 34,37.125 C 34,36.503906 34.089844,36 34.199219,36 h 3.601562 C 37.910156,36 38,36.503906 38,37.125 v 1.121094 c 0,0.621094 -0.08984,1.125 -0.199219,1.125 H 34.199219 C 34.089844,39.371094 34,38.867188 34,38.246094 Z m 0,0"
       fill="#89e777"
       id="path25" />
    <path
       d="M 40,37.125 C 40,36.503906 40.089844,36 40.199219,36 h 3.601562 C 43.910156,36 44,36.503906 44,37.125 v 1.121094 c 0,0.621094 -0.08984,1.125 -0.199219,1.125 H 40.199219 C 40.089844,39.371094 40,38.867188 40,38.246094 Z m 0,0"
       fill="#fc7474"
       id="path26" />
    <path
       d="M 28,37.125 C 28,36.503906 28.089844,36 28.199219,36 h 3.601562 C 31.910156,36 32,36.503906 32,37.125 v 1.121094 c 0,0.621094 -0.08984,1.125 -0.199219,1.125 H 28.199219 C 28.089844,39.371094 28,38.867188 28,38.246094 Z m 0,0"
       fill="url(#b)"
       id="path27"
       style="fill:url(#linearGradient39)" />
    <path
       d="M 34,37.125 C 34,36.503906 34.089844,36 34.199219,36 h 3.601562 C 37.910156,36 38,36.503906 38,37.125 v 1.121094 c 0,0.621094 -0.08984,1.125 -0.199219,1.125 H 34.199219 C 34.089844,39.371094 34,38.867188 34,38.246094 Z m 0,0"
       fill="url(#b)"
       id="path28"
       style="fill:url(#linearGradient40)" />
    <path
       d="M 40,37.125 C 40,36.503906 40.089844,36 40.199219,36 h 3.601562 C 43.910156,36 44,36.503906 44,37.125 v 1.121094 c 0,0.621094 -0.08984,1.125 -0.199219,1.125 H 40.199219 C 40.089844,39.371094 40,38.867188 40,38.246094 Z m 0,0"
       fill="url(#b)"
       id="path29"
       style="fill:url(#linearGradient41)" />
    <path
       d="M 24,43.125 C 24,42.503906 24.042969,42 24.101562,42 h 1.796876 C 25.957031,42 26,42.503906 26,43.125 v 1.121094 c 0,0.621094 -0.04297,1.125 -0.101562,1.125 H 24.101562 C 24.042969,45.371094 24,44.867188 24,44.246094 Z m 0,0"
       fill="#deddda"
       fill-opacity="0.6"
       id="path30" />
    <path
       d="M 34,25.125 C 34,24.503906 34.042969,24 34.101562,24 h 1.796876 C 35.957031,24 36,24.503906 36,25.125 v 1.121094 c 0,0.621094 -0.04297,1.125 -0.101562,1.125 H 34.101562 C 34.042969,27.371094 34,26.867188 34,26.246094 Z m 0,0"
       fill="#deddda"
       fill-opacity="0.6"
       id="path31" />
    <g
       stroke="url(#d)"
       id="g38"
       style="stroke:url(#linearGradient52)">
      <path
         d="m 92.612267,93.342208 8.212163,-1.236209"
         fill="url(#c)"
         stroke-width="2"
         transform="matrix(1.425097,0,0,1.425097,-73.21587,-57.424077)"
         id="path32"
         style="fill:url(#linearGradient42);stroke:url(#linearGradient43)" />
      <path
         d="M 104.57143,100.29075 V 94.775773"
         fill="none"
         stroke-width="2"
         transform="matrix(1.425097,0,0,1.425097,-73.21587,-57.424077)"
         id="path33"
         style="stroke:url(#linearGradient44)" />
      <path
         d="m 91.91056,96.625975 9.39903,5.210715"
         fill="url(#c)"
         stroke-width="2"
         transform="matrix(1.425097,0,0,1.425097,-73.21587,-57.424077)"
         id="path34"
         style="fill:url(#linearGradient45);stroke:url(#linearGradient46)" />
      <path
         d="m 92.749319,94.000058 c 0,2.623176 -2.127048,4.750224 -4.750224,4.750224 -2.623176,0 -4.747483,-2.127048 -4.747483,-4.750224 0,-2.623176 2.124307,-4.750224 4.747483,-4.750224 2.623176,0 4.750224,2.127048 4.750224,4.750224 z m 0,0"
         fill="none"
         stroke-width="1.99987"
         transform="matrix(1.425097,0,0,1.425097,-73.21587,-57.424077)"
         id="path35"
         style="stroke:url(#linearGradient47)" />
      <path
         d="m 108.37051,91.001359 c 0,2.096897 -1.70219,3.799083 -3.79908,3.799083 -2.09964,0 -3.79908,-1.702186 -3.79908,-3.799083 0,-2.099637 1.69944,-3.801823 3.79908,-3.801823 2.09689,0 3.79908,1.702186 3.79908,3.801823 z m 0,0"
         fill="none"
         stroke-width="2"
         transform="matrix(1.425097,0,0,1.425097,-73.21587,-57.424077)"
         id="path36"
         style="stroke:url(#linearGradient48)" />
      <path
         d="m 109.31891,104.99985 c 0,2.62318 -2.12705,4.75023 -4.74748,4.75023 -2.62318,0 -4.750225,-2.12705 -4.750225,-4.75023 0,-2.62317 2.127045,-4.74748 4.750225,-4.74748 2.62043,0 4.74748,2.12431 4.74748,4.74748 z m 0,0"
         fill="none"
         stroke-width="2"
         transform="matrix(1.425097,0,0,1.425097,-73.215872,-57.424077)"
         id="path37"
         style="stroke:url(#linearGradient49)" />
      <path
         d="m 105.56917,104.99985 c 0,0.5537 -0.44679,1.00048 -0.99774,1.00048 -0.55369,0 -1.00048,-0.44679 -1.00048,-1.00048 0,-0.55094 0.44679,-1.00047 1.00048,-1.00047 0.55095,0 0.99774,0.44953 0.99774,1.00047 z m 0,0"
         fill="url(#c)"
         transform="matrix(1.425097,0,0,1.425097,-73.215872,-57.424077)"
         id="path38"
         style="fill:url(#linearGradient50);stroke:url(#linearGradient51)" />
    </g>
  </g>
</svg>
