<?xml version="1.0" encoding="UTF-8" standalone="no"?>
<svg
   height="16px"
   viewBox="0 0 16 16"
   width="16px"
   version="1.1"
   id="svg7"
   sodipodi:docname="corese-core_doc_fav.svg"
   xml:space="preserve"
   inkscape:version="1.4 (e7c3feb100, 2024-10-09)"
   xmlns:inkscape="http://www.inkscape.org/namespaces/inkscape"
   xmlns:sodipodi="http://sodipodi.sourceforge.net/DTD/sodipodi-0.dtd"
   xmlns="http://www.w3.org/2000/svg"
   xmlns:svg="http://www.w3.org/2000/svg"><defs
     id="defs7"><inkscape:path-effect
       effect="fillet_chamfer"
       id="path-effect11500"
       is_visible="true"
       lpeversion="1"
       satellites_param="F,0,0,1,0,5.2916667,0,1 @ F,0,0,1,0,5.2916667,0,1 @ F,0,0,1,0,5.2916667,0,1 @ F,0,0,1,0,5.2916667,0,1"
       unit="px"
       method="auto"
       mode="F"
       radius="20"
       chamfer_steps="1"
       flexible="false"
       use_knot_distance="true"
       apply_no_radius="true"
       apply_with_radius="true"
       only_selected="false"
       hide_knots="false"
       nodesatellites_param="F,0,0,1,0,5.2916667,0,1 @ F,0,0,1,0,5.2916667,0,1 @ F,0,0,1,0,5.2916667,0,1 @ F,0,0,1,0,5.2916667,0,1" /><linearGradient
       id="linearGradient1260"
       inkscape:swatch="solid"><stop
         style="stop-color:#bf0000;stop-opacity:1;"
         offset="0"
         id="stop1258" /></linearGradient></defs><sodipodi:namedview
     id="namedview7"
     pagecolor="#ffffff"
     bordercolor="#666666"
     borderopacity="1.0"
     inkscape:showpageshadow="2"
     inkscape:pageopacity="0.0"
     inkscape:pagecheckerboard="0"
     inkscape:deskcolor="#d1d1d1"
     inkscape:zoom="22.96875"
     inkscape:cx="0.56598639"
     inkscape:cy="13.757823"
     inkscape:window-width="3072"
     inkscape:window-height="1659"
     inkscape:window-x="0"
     inkscape:window-y="0"
     inkscape:window-maximized="1"
     inkscape:current-layer="g7" /><g
     stroke="#414141"
     stroke-width="1.10650654139"
     id="g7"><path
       d="M 1.2307734,0 H 14.769241 C 15.448929,0 16,0.57312508 16,1.2799997 V 14.719997 C 16,15.426873 15.448929,16 14.769241,16 H 1.2307734 C 0.55108276,16.000001 0,15.426873 0,14.719997 V 1.2799997 C 0,0.57312508 0.55108276,0 1.2307734,0 Z m 0,0"
       fill="#deddda"
       id="path7-5"
       style="fill:#ffffff;fill-opacity:1;stroke:none;stroke-width:0.156912" /><g
       id="g8"
       transform="matrix(0.87988236,0,0,0.87988236,0.96107635,0.96084442)"><path
         d="M 5.9139057,5.0860428 10.577976,4.3829165"
         fill="#ff0000"
         id="path1" /><g
         fill="none"
         id="g6"><path
           d="M 12.702979,9.0313618 V 5.8985441"
           id="path2" /><path
           d="M 5.5154675,6.949327 10.851414,9.9102694"
           id="path3" /><path
           d="m 5.9920307,5.4610435 c 0,1.4882835 -1.2070332,2.6953167 -2.6953168,2.6953167 -1.4882838,0 -2.69922329,-1.2070332 -2.69922329,-2.6953167 0,-1.4921902 1.21093949,-2.6992233 2.69922329,-2.6992233 1.4882836,0 2.6953168,1.2070331 2.6953168,2.6992233 z m 0,0"
           id="path4" /><path
           d="m 14.859233,3.7579155 c 0,1.1875021 -0.964846,2.1562537 -2.156254,2.1562537 -1.191408,0 -2.156253,-0.9687516 -2.156253,-2.1562537 0,-1.1914081 0.964845,-2.1601597 2.156253,-2.1601597 1.191408,0 2.156254,0.9687516 2.156254,2.1601597 z m 0,0"
           id="path5" /><path
           d="m 15.402202,11.703241 c 0,1.49219 -1.210939,2.699223 -2.699223,2.699223 -1.488284,0 -2.695317,-1.207033 -2.695317,-2.699223 0,-1.488284 1.207033,-2.695317 2.695317,-2.695317 1.488284,0 2.699223,1.207033 2.699223,2.695317 z m 0,0"
           id="path6" /></g><path
         d="m 13.273293,11.703241 c 0,0.231417 -0.135823,0.429401 -0.332583,0.519064 -0.07226,0.03293 -0.152741,0.05125 -0.237731,0.05125 -0.3125,0 -0.566407,-0.253906 -0.566407,-0.570313 0,-0.3125 0.253907,-0.566407 0.566407,-0.566407 0.316407,0 0.570314,0.253907 0.570314,0.566406 z"
         fill="#ffffff"
         id="path7"
         sodipodi:nodetypes="ssssss" /></g></g></svg>
